<svg width="48" height="48" viewBox="0 0 48 48" fill="none" xmlns="http://www.w3.org/2000/svg">
<path d="M47.9872 21.158C47.9115 20.4834 47.1245 19.9759 46.444 19.9759C44.2449 19.9759 42.2932 18.6851 41.4747 16.6873C40.6392 14.6416 41.1783 12.2563 42.8167 10.7532C43.3328 10.2813 43.3957 9.49127 42.9631 8.94283C41.8372 7.51342 40.558 6.22204 39.161 5.10297C38.6144 4.66455 37.8113 4.72558 37.337 5.25056C35.9065 6.83483 33.3369 7.42353 31.3511 6.59507C29.2855 5.72592 27.9816 3.63203 28.1097 1.38453C28.1519 0.67813 27.6354 0.0643074 26.9315 -0.0176878C25.1386 -0.225271 23.3299 -0.231291 21.5318 -0.0318034C20.8368 0.0450022 20.3208 0.644294 20.3438 1.34177C20.4217 3.56727 19.1031 5.62421 17.0574 6.46222C15.0955 7.2637 12.5437 6.67935 11.1162 5.10899C10.6443 4.59169 9.8553 4.52817 9.30499 4.95724C7.86686 6.08587 6.55888 7.37807 5.42257 8.79587C4.9798 9.347 5.04519 10.1458 5.5656 10.6193C7.23643 12.1323 7.77511 14.5382 6.90762 16.6078C6.07936 18.5809 4.03073 19.8519 1.68567 19.8519C0.924667 19.8274 0.383084 20.3387 0.299013 21.0308C0.0881087 22.8332 0.0858253 24.6708 0.288841 26.4879C0.364609 27.1655 1.1748 27.6687 1.86273 27.6687C3.95309 27.6155 5.95876 28.9088 6.80134 30.957C7.63976 33.0027 7.10005 35.387 5.4589 36.8922C4.94555 37.364 4.87995 38.1522 5.31338 38.7C6.4279 40.1205 7.70827 41.4127 9.10945 42.5414C9.65954 42.9843 10.4596 42.9223 10.9364 42.3967C12.3724 40.8087 14.9417 40.221 16.9193 41.0511C18.991 41.918 20.2942 44.0117 20.167 46.2598C20.1252 46.9662 20.643 47.5819 21.3444 47.662C22.2619 47.7693 23.1842 47.8225 24.1094 47.8225C24.9875 47.8225 25.8657 47.7745 26.744 47.6768C27.4398 47.5999 27.9551 47 27.9316 46.3023C27.8513 44.0779 29.1727 42.0207 31.216 41.1844C33.1909 40.3777 35.7313 40.9681 37.1597 42.5362C37.634 43.0524 38.4183 43.1151 38.9709 42.6877C40.4065 41.562 41.712 40.2704 42.8533 38.8489C43.2965 38.2988 43.2336 37.499 42.7103 37.0246C41.0398 35.5126 40.4983 33.1057 41.3657 31.0382C42.1811 29.0917 44.1536 27.7847 46.2751 27.7847L46.5719 27.7926C47.2607 27.8484 47.8936 27.3181 47.9768 26.6154C48.1888 24.8113 48.1911 22.9758 47.9872 21.158ZM24.1382 37.6588C16.4965 37.6588 10.302 31.4643 10.302 23.8228C10.302 16.1812 16.4967 9.98677 24.1382 9.98677C31.7798 9.98677 37.9745 16.1812 37.9745 23.8228C37.9745 26.4165 37.2593 28.8426 36.0174 30.9171L29.9589 24.8584C30.3975 23.8242 30.6291 22.7031 30.6289 21.546C30.6289 19.2803 29.7465 17.1502 28.1442 15.5483C26.5423 13.9464 24.4122 13.0642 22.1469 13.0642C21.3909 13.0642 20.6384 13.1647 19.9104 13.3629C19.5916 13.4499 19.3308 13.7127 19.2459 14.0321C19.1592 14.3589 19.2569 14.6937 19.5123 14.9492C19.5123 14.9492 22.5033 17.9633 23.5041 18.9639C23.6089 19.0687 23.6087 19.3189 23.594 19.409L23.5846 19.4748C23.4837 20.5749 23.2892 21.8956 23.1288 22.4031C23.1072 22.4245 23.0868 22.4426 23.0648 22.4646C23.0418 22.4876 23.0206 22.5098 22.9984 22.5327C22.4842 22.6977 21.1432 22.8945 20.0256 22.9945L20.0258 22.9885L19.9756 23.0012C19.9667 23.0022 19.95 23.0035 19.928 23.0035C19.8072 23.0035 19.6295 22.9696 19.468 22.8083C18.4264 21.7667 15.5526 18.9135 15.5526 18.9135C15.2948 18.6565 15.0303 18.6025 14.8541 18.6025C14.4433 18.6025 14.0755 18.8993 13.9596 19.3251C13.1685 22.2526 14.0072 25.4017 16.1488 27.5435C17.7511 29.1456 19.8813 30.0279 22.1471 30.0279C23.3042 30.0279 24.4253 29.7964 25.4593 29.3578L31.5836 35.4821C29.4335 36.858 26.8802 37.6588 24.1382 37.6588Z" fill="#FF9F1C"/>
</svg>
