<svg width="25" height="25" viewBox="0 0 25 25" fill="none" xmlns="http://www.w3.org/2000/svg">
<g clip-path="url(#clip0_92_116)">
<path d="M21.0497 4.896H3.95807C2.87882 4.896 2.00391 5.7709 2.00391 6.85016C2.00391 7.50354 2.33045 8.11369 2.87409 8.47612L10.7289 13.7126C11.3704 14.1403 11.6911 14.3542 12.0378 14.4372C12.3442 14.5107 12.6636 14.5107 12.97 14.4372C13.3167 14.3542 13.6374 14.1403 14.2789 13.7126L14.2789 13.7126L22.1337 8.47612C22.6774 8.11369 23.0039 7.50354 23.0039 6.85016C23.0039 5.7709 22.129 4.896 21.0497 4.896Z" fill="#FF492F"/>
<path d="M5.2 20.5H19.8C20.9201 20.5 21.4802 20.5 21.908 20.282C22.2843 20.0903 22.5903 19.7843 22.782 19.408C23 18.9802 23 18.4201 23 17.3V9L15.1626 14.225C14.2003 14.8665 13.7192 15.1872 13.1991 15.3119C12.7395 15.422 12.2605 15.422 11.8009 15.3119C11.2808 15.1872 10.7997 14.8665 9.83744 14.225L2 9V17.3C2 18.4201 2 18.9802 2.21799 19.408C2.40973 19.7843 2.71569 20.0903 3.09202 20.282C3.51984 20.5 4.0799 20.5 5.2 20.5Z" fill="#FF492F"/>
</g>
<defs>
<clipPath id="clip0_92_116">
<rect width="24" height="24" fill="white" transform="translate(0.503906 0.895996)"/>
</clipPath>
</defs>
</svg>
