<svg width="25" height="25" viewBox="0 0 25 25" fill="none" xmlns="http://www.w3.org/2000/svg">
<g clip-path="url(#clip0_86_37)">
<path d="M14.3253 14.4816C13.4948 10.2046 9.57663 8.26084 5.57792 9.01826C6.03639 6.61855 8.28302 4.65644 9.74289 2.83248C9.94993 2.57383 10.0566 2.11896 9.74289 1.87523C8.97328 1.27736 8.25504 1.09121 7.59338 1.18559C7.54749 1.06 7.426 0.96636 7.2682 1.01598C4.91961 1.75548 3.39869 4.26424 2.38113 6.34337C1.03841 9.08752 0.364804 12.2643 0.522603 15.3136C0.771427 20.1209 5.06361 24.705 10.1748 23.3703C13.9061 22.3961 14.9652 17.7771 14.3253 14.4816ZM4.76206 18.3284C4.76243 18.3268 4.76343 18.3258 4.7638 18.3243C4.78718 18.2342 4.8072 18.1432 4.82846 18.0523C4.8976 18.1415 4.9604 18.2407 5.01586 18.3485C4.92819 18.3599 4.84289 18.3672 4.76131 18.369C4.76081 18.3548 4.76256 18.3421 4.76206 18.3284ZM3.68096 7.04669C3.74264 7.07305 3.80805 7.08972 3.87619 7.09606C3.67648 7.49646 3.49232 7.90383 3.32644 8.32028C3.26141 8.3015 3.19326 8.29056 3.12375 8.29069C3.29262 7.86914 3.48163 7.45568 3.68096 7.04669ZM3.16827 19.2496C3.32893 19.4156 3.50128 19.5747 3.68071 19.7279C3.65385 19.7626 3.6311 19.7999 3.61182 19.839C3.45191 19.6519 3.30095 19.4574 3.16827 19.2496ZM7.77816 19.2331C7.57224 18.9642 7.41668 18.6674 7.31894 18.3432C7.31657 18.3194 7.30874 18.2955 7.29581 18.2716C7.26571 18.1601 7.24196 18.0456 7.22679 17.9272C7.56453 18.3863 7.83598 18.8976 8.08779 19.4144C7.97923 19.3648 7.87627 19.3038 7.77816 19.2331Z" fill="#FF9F1C"/>
<path d="M16.0284 8.73527C16.4804 6.90957 17.7132 5.64929 18.6088 4.00277C18.7544 3.73505 18.6972 3.31872 18.3923 3.17709C17.8348 2.91807 17.3338 2.6307 16.7765 2.41744C16.6078 2.05769 16.0984 1.82155 15.7085 2.17297C15.0189 2.79434 14.2661 3.5913 13.6647 4.48164C12.8671 5.46003 12.2943 6.64757 12.1041 7.78984C12.0816 7.92514 12.1049 8.06229 12.1579 8.18739C12.1292 8.23725 12.1003 8.2865 12.0715 8.33648C11.9259 8.58879 12.0088 8.92789 12.2648 9.074C15.3007 10.805 16.5565 13.6235 16.4671 16.5932C16.3134 17.0264 16.2744 17.4943 16.333 17.9648C16.0872 19.4592 15.5246 20.9556 14.6935 22.3376C14.5067 22.6481 14.5764 22.9388 14.7587 23.1357C14.8064 23.2912 14.9319 23.4226 15.1575 23.4736C19.9974 24.5669 24.8666 22.2506 25.3917 16.97C25.8804 12.0562 20.7617 7.91506 16.0284 8.73527ZM17.8697 22.3901C17.8867 22.3741 17.9019 22.3564 17.9187 22.34C18.363 22.3056 18.7691 22.1807 19.1142 21.9799C19.1181 21.9971 19.1207 22.0128 19.1249 22.0301C19.136 22.0775 19.1602 22.1134 19.1794 22.154C18.7524 22.2625 18.3143 22.3432 17.8697 22.3901ZM21.3026 13.1518C21.2567 13.236 21.2164 13.3205 21.1759 13.4052C21.1726 13.3816 21.1721 13.3572 21.1685 13.3336C21.1746 13.1588 21.2055 12.9786 21.253 12.7949C21.2581 12.7984 21.2638 12.8014 21.2689 12.8049C21.2933 12.9061 21.3132 13.0093 21.3287 13.1144C21.3206 13.1273 21.3102 13.1381 21.3026 13.1518ZM23.6149 18.4508C23.6167 18.3354 23.6149 18.2192 23.6108 18.1022C23.6866 17.9733 23.7565 17.8412 23.8159 17.7044C23.7672 17.9656 23.6962 18.2118 23.6149 18.4508Z" fill="#FF9F1C"/>
</g>
<defs>
<clipPath id="clip0_86_37">
<rect width="24" height="24" fill="white" transform="translate(0.5 0.303711)"/>
</clipPath>
</defs>
</svg>
